<?xml version="1.0" encoding="utf-8"?>
<!-- Generator: Adobe Illustrator 21.1.0, SVG Export Plug-In . SVG Version: 6.00 Build 0)  -->
<svg version="1.1" id="Слой_1" xmlns="http://www.w3.org/2000/svg" xmlns:xlink="http://www.w3.org/1999/xlink" x="0px" y="0px"
	 viewBox="0 0 50 50" style="enable-background:new 0 0 50 50;" xml:space="preserve">
<g>
	<defs>
		<path id="SVGID_1_" d="M37.2,31.7c-1.9,5.5-5.4,16.9-16.2,16.9c-1.5,0-3.2-0.2-5.1-0.7l0.1,0.1c2.8,1.1,5.7,1.7,8.8,1.7h0
			c1.4,0,2.8-0.1,4.2-0.4c10.4-1.8,18.1-10.1,19.7-20c0.1-1.1-0.1-4.3-4-4.6c-0.2,0-0.3,0-0.4,0C40,24.5,38,29.3,37.2,31.7"/>
	</defs>
	<use xlink:href="#SVGID_1_"  style="overflow:visible;fill:#EC2808;"/>
	<clipPath id="SVGID_2_">
		<use xlink:href="#SVGID_1_"  style="overflow:visible;"/>
	</clipPath>
</g>
<g>
	<defs>
		<path id="SVGID_3_" d="M24.9,1c-1.4,0-2.8,0.1-4.2,0.4C10.3,3.2,2.6,11.5,1,21.4C1,22.4,1.1,25.7,5,26c0.2,0,0.3,0,0.4,0
			c4.4,0,6.3-4.8,7.2-7.1C14.6,13.4,18,2,28.8,2c1.5,0,3.2,0.2,5.1,0.7l-0.1-0.1C31,1.6,28,1,24.9,1L24.9,1z"/>
	</defs>
	<use xlink:href="#SVGID_3_"  style="overflow:visible;fill:#EC2808;"/>
	<clipPath id="SVGID_4_">
		<use xlink:href="#SVGID_3_"  style="overflow:visible;"/>
	</clipPath>
</g>
<g>
	<defs>
		<path id="SVGID_5_" d="M24.9,12.3c-3.5,5.5-5.4,13.2-8.6,17.9c-2.1,3.1-5.4,5.3-8.6,5.3c-2,0-4.1-0.8-5.8-2.8
			c0.1,0.4,0.2,0.7,0.4,1c1.2,3.1,2.9,6,5.1,8.3c1.3,1.3,2.8,2.1,4.5,2.5c1,0.2,2,0.3,2.9,0.3c4.7,0,7.8-2.8,10.2-6.5
			c3.5-5.5,5.4-13.2,8.6-17.9c2.1-3.1,5.4-5.3,8.6-5.3c2,0,4.1,0.8,5.8,2.8c-0.1-0.4-0.2-0.7-0.4-1c-1.2-3.1-2.9-6-5.1-8.3
			c-1.3-1.3-2.8-2.1-4.5-2.5c-1-0.2-2-0.3-2.9-0.3C30.5,5.8,27.3,8.5,24.9,12.3"/>
	</defs>
	<use xlink:href="#SVGID_5_"  style="overflow:visible;fill:#EC2808;"/>
	<clipPath id="SVGID_6_">
		<use xlink:href="#SVGID_5_"  style="overflow:visible;"/>
	</clipPath>
</g>
</svg>
